<?xml version="1.0" encoding="UTF-8"?>
<!DOCTYPE svg PUBLIC "-//W3C//DTD SVG 1.1//EN" "http://www.w3.org/Graphics/SVG/1.1/DTD/svg11.dtd">
<svg xmlns="http://www.w3.org/2000/svg" version="1.1" width="480px" height="519px" style="shape-rendering:geometricPrecision; text-rendering:geometricPrecision; image-rendering:optimizeQuality; fill-rule:evenodd; clip-rule:evenodd" xmlns:xlink="http://www.w3.org/1999/xlink">
<g><path style="opacity:1" fill="#3fdc84" d="M 398.5,164.5 C 377.801,176.514 357.134,188.514 336.5,200.5C 306.67,181.745 276.003,164.245 244.5,148C 239.079,147.161 233.746,147.494 228.5,149C 201.833,164.667 175.167,180.333 148.5,196C 145.917,198.755 143.251,201.255 140.5,203.5C 120.888,192.691 101.221,181.858 81.5,171C 79.9371,170.241 78.9371,169.074 78.5,167.5C 81.9305,160.901 86.9305,155.735 93.5,152C 136.833,126.667 180.167,101.333 223.5,76C 232.5,72.6667 241.5,72.6667 250.5,76C 296.156,100.826 341.49,126.16 386.5,152C 391.377,155.376 395.377,159.543 398.5,164.5 Z"/></g>
<g><path style="opacity:1" fill="#37bf6e" d="M 336.5,200.5 C 336.5,201.167 336.167,201.5 335.5,201.5C 324.972,207.594 314.638,213.927 304.5,220.5C 284.85,207.669 264.517,195.835 243.5,185C 239.833,184.333 236.167,184.333 232.5,185C 214.965,195.599 197.299,205.933 179.5,216C 177.266,218.063 175.266,220.229 173.5,222.5C 163.327,216.579 152.994,210.913 142.5,205.5C 141.833,204.833 141.167,204.167 140.5,203.5C 143.251,201.255 145.917,198.755 148.5,196C 175.167,180.333 201.833,164.667 228.5,149C 233.746,147.494 239.079,147.161 244.5,148C 276.003,164.245 306.67,181.745 336.5,200.5 Z"/></g>
<g><path style="opacity:1" fill="#4586f3" d="M 398.5,164.5 C 402.641,170.017 404.807,176.351 405,183.5C 405.667,232.167 405.667,280.833 405,329.5C 405.209,343.581 399.709,354.748 388.5,363C 343.664,389.586 298.664,415.919 253.5,442C 247.141,444.353 240.807,444.853 234.5,443.5C 236.5,443.5 238.5,443.5 240.5,443.5C 240.5,419.167 240.5,394.833 240.5,370.5C 245.134,370.52 249.467,369.354 253.5,367C 279.833,351.333 306.167,335.667 332.5,320C 335.844,316.479 338.011,312.312 339,307.5C 339.667,274.5 339.667,241.5 339,208.5C 338.347,205.861 337.18,203.527 335.5,201.5C 336.167,201.5 336.5,201.167 336.5,200.5C 357.134,188.514 377.801,176.514 398.5,164.5 Z"/></g>
<g><path style="opacity:1" fill="#083042" d="M 78.5,167.5 C 78.9371,169.074 79.9371,170.241 81.5,171C 101.221,181.858 120.888,192.691 140.5,203.5C 141.167,204.167 141.833,204.833 142.5,205.5C 140.955,206.23 140.122,207.563 140,209.5C 139.333,243.833 139.333,278.167 140,312.5C 140.964,316.468 143.131,319.635 146.5,322C 175.135,337.986 203.801,353.986 232.5,370C 235.146,370.497 237.813,370.664 240.5,370.5C 240.5,394.833 240.5,419.167 240.5,443.5C 238.5,443.5 236.5,443.5 234.5,443.5C 231.053,443.186 227.72,442.352 224.5,441C 177.865,414.681 131.199,388.347 84.5,362C 79.7475,358.586 76.5809,354.086 75,348.5C 74.3333,291.167 74.3333,233.833 75,176.5C 75.6608,173.198 76.8275,170.198 78.5,167.5 Z"/></g>
<g><path style="opacity:1" fill="#d5effe" d="M 304.5,220.5 C 304.312,222.103 304.812,223.437 306,224.5C 306.667,247.167 306.667,269.833 306,292.5C 305,294.5 304,296.5 303,298.5C 284.749,310.044 266.249,321.21 247.5,332C 244.274,333.199 240.941,333.699 237.5,333.5C 236.127,333.657 234.793,333.49 233.5,333C 213.951,321.974 194.451,310.807 175,299.5C 174.333,298.167 173.667,296.833 173,295.5C 172.196,271.136 172.363,246.803 173.5,222.5C 175.266,220.229 177.266,218.063 179.5,216C 197.299,205.933 214.965,195.599 232.5,185C 236.167,184.333 239.833,184.333 243.5,185C 264.517,195.835 284.85,207.669 304.5,220.5 Z"/></g>
<g><path style="opacity:1" fill="#3870b2" d="M 335.5,201.5 C 337.18,203.527 338.347,205.861 339,208.5C 339.667,241.5 339.667,274.5 339,307.5C 338.011,312.312 335.844,316.479 332.5,320C 306.167,335.667 279.833,351.333 253.5,367C 249.467,369.354 245.134,370.52 240.5,370.5C 240.5,358.5 240.5,346.5 240.5,334.5C 239.209,334.737 238.209,334.404 237.5,333.5C 240.941,333.699 244.274,333.199 247.5,332C 266.249,321.21 284.749,310.044 303,298.5C 304,296.5 305,294.5 306,292.5C 306.667,269.833 306.667,247.167 306,224.5C 304.812,223.437 304.312,222.103 304.5,220.5C 314.638,213.927 324.972,207.594 335.5,201.5 Z"/></g>
<g><path style="opacity:1" fill="#041619" d="M 142.5,205.5 C 152.994,210.913 163.327,216.579 173.5,222.5C 172.363,246.803 172.196,271.136 173,295.5C 173.667,296.833 174.333,298.167 175,299.5C 194.451,310.807 213.951,321.974 233.5,333C 234.793,333.49 236.127,333.657 237.5,333.5C 238.209,334.404 239.209,334.737 240.5,334.5C 240.5,346.5 240.5,358.5 240.5,370.5C 237.813,370.664 235.146,370.497 232.5,370C 203.801,353.986 175.135,337.986 146.5,322C 143.131,319.635 140.964,316.468 140,312.5C 139.333,278.167 139.333,243.833 140,209.5C 140.122,207.563 140.955,206.23 142.5,205.5 Z"/></g>
</svg>
