<svg version="1.1" id="Layer_1" xmlns="http://www.w3.org/2000/svg" xmlns:xlink="http://www.w3.org/1999/xlink" x="0px" y="0px"
	 width="100%" viewBox="0 0 200 200" enable-background="new 0 0 200 200" xml:space="preserve">
<path fill="#000000" opacity="1.000000" stroke="none" 
	d="
M100.000000,201.000000 
	C67.853134,201.000000 36.206127,200.959641 4.559647,201.069595 
	C1.750150,201.079361 0.897809,200.718826 0.904082,197.563599 
	C1.031905,133.270737 1.031330,68.977509 0.909202,4.684640 
	C0.902973,1.405525 1.842548,0.928787 4.810935,0.932872 
	C68.937355,1.021119 133.063965,1.021223 197.190384,0.932610 
	C200.161911,0.928504 201.096771,1.410104 201.090561,4.685952 
	C200.968765,68.978821 200.967987,133.272049 201.096207,197.564896 
	C201.102509,200.723862 200.244858,201.078598 197.439056,201.069168 
	C165.126328,200.960663 132.813095,201.000000 100.000000,201.000000 
z"/>
<path fill="#F8F8F8" opacity="1.000000" stroke="none" 
	d="
M101.365921,93.369926 
	C85.626564,109.170387 70.119591,124.705109 54.646355,140.273376 
	C52.300098,142.634048 49.737480,144.298386 46.968170,141.387009 
	C44.369247,138.654755 45.605782,136.138702 48.083786,133.669281 
	C76.702377,105.149956 105.267082,76.576431 133.786545,47.957951 
	C136.293015,45.442783 138.853806,44.428909 141.513397,47.071262 
	C144.108978,49.650013 142.779312,52.160896 140.512421,54.409988 
	C127.526779,67.293633 114.573540,80.209915 101.365921,93.369926 
z"/>
<path fill="#F3F3F3" opacity="1.000000" stroke="none" 
	d="
M108.524330,133.524597 
	C120.264801,121.723404 131.764267,110.181740 143.236710,98.613274 
	C145.368683,96.463486 147.830917,95.462044 150.273987,97.575256 
	C152.913574,99.858452 152.420212,102.660004 150.117081,105.002388 
	C144.054184,111.168640 137.906158,117.251190 131.791656,123.366707 
	C123.445358,131.714432 115.100372,140.063446 106.749588,148.406677 
	C105.926537,149.229004 105.140182,150.114288 104.210220,150.798233 
	C101.859039,152.527390 99.402626,152.466354 97.527840,150.244553 
	C95.803947,148.201584 96.121483,145.837418 97.983871,143.935669 
	C101.356110,140.492142 104.837929,137.155930 108.524330,133.524597 
z"/>
</svg>